<svg width="35" height="35" viewBox="0 0 35 35" fill="none" xmlns="http://www.w3.org/2000/svg">
<path d="M19.1498 15.332L20.5873 14.5493" stroke="black" stroke-width="1.2" stroke-linecap="round" stroke-linejoin="round"/>
<path d="M20.5874 14.5493V20.2993" stroke="black" stroke-width="1.2" stroke-linecap="round" stroke-linejoin="round"/>
<path d="M16.603 17.4241C16.9792 17.4252 17.3397 17.5751 17.6057 17.8411C17.8717 18.1071 18.0217 18.4676 18.0228 18.8438C18.0217 19.22 17.8717 19.5805 17.6057 19.8465C17.3397 20.1125 16.9792 20.2624 16.603 20.2635H16.0351C15.7211 20.307 15.4014 20.2853 15.0961 20.1998C14.7908 20.1143 14.5063 19.9669 14.2605 19.7667" stroke="black" stroke-width="1.2" stroke-linecap="round" stroke-linejoin="round"/>
<path d="M14.2605 15.0815C14.7631 14.6878 15.4012 14.5092 16.0351 14.5846H16.603C16.9792 14.5857 17.3397 14.7356 17.6057 15.0016C17.8717 15.2677 18.0217 15.6281 18.0228 16.0043C18.0217 16.3805 17.8717 16.741 17.6057 17.007C17.3397 17.273 16.9792 17.423 16.603 17.4241H15.1833" stroke="black" stroke-width="1.2" stroke-linecap="round" stroke-linejoin="round"/>
<path d="M27.9654 5.60501H6.88237C6.54349 5.60501 6.21849 5.73963 5.97886 5.97926C5.73923 6.21888 5.60461 6.54389 5.60461 6.88277V27.9658C5.60461 28.3047 5.73923 28.6297 5.97886 28.8693C6.21849 29.109 6.54349 29.2436 6.88237 29.2436H23.4933L29.2432 23.4937V6.88277C29.2432 6.54389 29.1086 6.21888 28.8689 5.97926C28.6293 5.73963 28.3043 5.60501 27.9654 5.60501Z" stroke="black" stroke-width="1.2" stroke-linecap="round" stroke-linejoin="round"/>
<path d="M23.4934 5.60501V29.2436" stroke="black" stroke-width="1.2" stroke-linecap="round" stroke-linejoin="round"/>
<path d="M11.3545 11.3548V29.2434" stroke="black" stroke-width="1.2" stroke-linecap="round" stroke-linejoin="round"/>
<path d="M29.2432 23.4934H5.60461" stroke="black" stroke-width="1.2" stroke-linecap="round" stroke-linejoin="round"/>
<path d="M29.2431 11.3548H11.3545" stroke="black" stroke-width="1.2" stroke-linecap="round" stroke-linejoin="round"/>
</svg>
