<svg width="18" height="18" viewBox="0 0 18 18" fill="none" xmlns="http://www.w3.org/2000/svg">
<path fill-rule="evenodd" clip-rule="evenodd" d="M5.62497 0.75C6.03918 0.75 6.37497 1.08579 6.37497 1.5V2.25H11.625V1.5C11.625 1.08579 11.9608 0.75 12.375 0.75C12.7892 0.75 13.125 1.08579 13.125 1.5V2.26852C15.02 2.45666 16.5 4.05549 16.5 6V12.75C16.5 14.8211 14.821 16.5 12.75 16.5H5.24997C3.1789 16.5 1.49997 14.8211 1.49997 12.75V6C1.49997 4.05549 2.97997 2.45666 4.87497 2.26852V1.5C4.87497 1.08579 5.21076 0.75 5.62497 0.75ZM3.128 5.25H14.8719C14.5631 4.37611 13.7296 3.75 12.75 3.75H5.24997C4.27031 3.75 3.43688 4.37611 3.128 5.25ZM15 6.75H2.99997V12.75C2.99997 13.9926 4.00733 15 5.24997 15H12.75C13.9926 15 15 13.9926 15 12.75V6.75Z" fill="black" fill-opacity="0.4"/>
</svg>
