<svg width="14" height="14" viewBox="0 0 14 14" fill="none" xmlns="http://www.w3.org/2000/svg">
<path d="M12.3296 3.29259C11.2186 3.66293 9.73722 2.18156 10.1076 1.07054M6.69995 0.700195C6.01773 0.700195 5.33551 0.778613 4.66691 0.935447C2.81529 1.36978 1.36953 2.81553 0.935203 4.66715C0.621534 6.00437 0.621534 7.39603 0.935203 8.73324C1.36953 10.5849 2.81529 12.0306 4.66691 12.4649C6.00412 12.7786 7.39578 12.7786 8.733 12.4649C10.5846 12.0306 12.0304 10.5849 12.4647 8.73324C12.6215 8.06463 12.7 7.3824 12.7 6.70018M10.0177 1.1604L7.62408 3.55401C6.58348 4.59461 5.84526 5.89846 5.48833 7.32615L5.37267 7.78879C5.33664 7.93294 5.46721 8.06351 5.61136 8.02747L6.07399 7.91181C7.50169 7.55489 8.80553 6.81666 9.84613 5.77606L12.2397 3.38245C12.5344 3.08779 12.7 2.68814 12.7 2.27142C12.7 1.40366 11.9965 0.700195 11.1287 0.700195C10.712 0.700195 10.3124 0.865735 10.0177 1.1604Z" stroke="black" stroke-width="1.4" stroke-linecap="round"/>
</svg>
