<svg width="48" height="48" viewBox="0 0 48 48" fill="none" xmlns="http://www.w3.org/2000/svg">
<path d="M32.6381 40.7078L27.83 41.9809C23.3796 43.1591 21.1543 43.7481 19.4108 42.7833C17.6673 41.8184 17.0863 39.6763 15.9245 35.3921L13.0491 24.7894C11.8873 20.5053 11.3064 18.3633 12.328 16.6663C13.3497 14.9694 15.5749 14.3803 20.0254 13.202L27.8927 11.1192C32.3433 9.941 34.5683 9.35188 36.312 10.3167C38.0554 11.2816 38.6364 13.4237 39.7981 17.7078L42.685 28.3527C43.179 30.1746 43.4262 31.0855 43.1546 31.942M32.6381 40.7078C34.1172 40.3163 34.129 40.31 35.2793 39.3231L40.6754 34.6928C42.1473 33.43 42.8832 32.7985 43.1546 31.942M32.6381 40.7078C32.6381 40.7078 33.7947 31.6747 36.3834 30.4833C39.32 29.1318 43.1546 31.942 43.1546 31.942" stroke="#141B34" stroke-width="2" stroke-linejoin="round"/>
<path d="M33.4333 9.83568C33.3067 7.72468 32.956 6.39582 31.9552 5.44301C30.4222 3.98357 27.9621 3.97631 23.0415 3.96176L14.3433 3.93605C9.42288 3.92152 6.96266 3.91424 5.43854 5.36464C3.91441 6.81504 3.92159 9.15667 3.93594 13.8399L3.97146 25.4304C3.98582 30.1138 3.993 32.4553 5.52603 33.9148C7.05907 35.3743 9.51929 35.3815 14.4398 35.3961L15.7787 35.4" stroke="#141B34" stroke-width="2"/>
</svg>
