<svg width="16" height="17" viewBox="0 0 16 17" fill="none" xmlns="http://www.w3.org/2000/svg">
<path d="M6.52506 15.8887C5.99418 14.7173 5.3629 12.0918 3.73608 11.6559C2.66349 11.4608 1.84167 12.3349 1.07158 12.9721M1.07158 12.9721C0.829183 12.5866 0.827325 12.108 0.823608 11.1508L0.801891 5.55804C0.793151 3.30719 0.788781 2.18176 1.49472 1.48522C2.20066 0.788685 3.34123 0.793055 5.62236 0.801795L10.4811 0.821905C12.2227 0.838685 13.1682 0.92077 13.7879 1.53232C14.4993 2.23429 14.5037 3.35972 14.5124 5.61057L14.5341 11.1812C14.5428 13.432 14.5472 14.5574 13.8412 15.254C13.1353 15.9505 11.9947 15.9461 9.71358 15.9374L7.24913 15.928C6.49102 15.9251 6.48449 15.9235 5.80511 15.5864L2.61796 14.0048C1.74863 13.5734 1.31397 13.3577 1.07158 12.9721Z" stroke="#141B34" stroke-opacity="0.4" stroke-width="1.6"/>
</svg>
